<svg width="72" height="73" viewBox="0 0 72 73" fill="none" xmlns="http://www.w3.org/2000/svg">
<rect y="0.5" width="72" height="72" rx="36" fill="#F49E0A"/>
<path d="M32.2667 47.1667C32.2667 43.5667 32.5889 40.9778 33.2333 39.4C33.8778 37.8222 35.2444 36.1 37.3333 34.2333C39.1556 32.6333 40.5444 31.2444 41.5 30.0667C42.4556 28.8889 42.9333 27.5444 42.9333 26.0333C42.9333 24.2111 42.3222 22.7 41.1 21.5C39.8778 20.3 38.1778 19.7 36 19.7C33.7333 19.7 32.0111 20.3889 30.8333 21.7667C29.6556 23.1444 28.8222 24.5444 28.3333 25.9667L21.4667 23.0333C22.4 20.1889 24.1111 17.7222 26.6 15.6333C29.0889 13.5444 32.2222 12.5 36 12.5C40.6667 12.5 44.2556 13.8 46.7667 16.4C49.2778 19 50.5333 22.1222 50.5333 25.7667C50.5333 27.9889 50.0556 29.8889 49.1 31.4667C48.1444 33.0444 46.6444 34.8333 44.6 36.8333C42.4222 38.9222 41.1 40.5111 40.6333 41.6C40.1667 42.6889 39.9333 44.5444 39.9333 47.1667H32.2667ZM36 63.1667C34.5333 63.1667 33.2778 62.6444 32.2333 61.6C31.1889 60.5556 30.6667 59.3 30.6667 57.8333C30.6667 56.3667 31.1889 55.1111 32.2333 54.0667C33.2778 53.0222 34.5333 52.5 36 52.5C37.4667 52.5 38.7222 53.0222 39.7667 54.0667C40.8111 55.1111 41.3333 56.3667 41.3333 57.8333C41.3333 59.3 40.8111 60.5556 39.7667 61.6C38.7222 62.6444 37.4667 63.1667 36 63.1667Z" fill="#B5530A"/>
</svg>
